<?xml version="1.0" encoding="UTF-8"?>
<svg width="240" height="80" viewBox="0 0 240 80" xmlns="http://www.w3.org/2000/svg">
    <!-- Background -->
    <rect width="240" height="80" fill="#ffffff" rx="8" />

    <!-- Lungs Icon -->
    <g transform="translate(15, 15)">
        <!-- Left lung -->
        <path
            d="M10 15 C5 15, 2 20, 2 25 C2 35, 5 45, 10 50 C15 45, 18 35, 18 25 C18 20, 15 15, 10 15 Z"
            fill="#2c5aa0" opacity="0.8" />
        <!-- Right lung -->
        <path
            d="M30 15 C25 15, 22 20, 22 25 C22 35, 25 45, 30 50 C35 45, 38 35, 38 25 C38 20, 35 15, 30 15 Z"
            fill="#4a7bc8" opacity="0.8" />
        <!-- Trachea -->
        <rect x="18" y="5" width="4" height="15" fill="#2c5aa0" rx="2" />
        <!-- Bronchi -->
        <path d="M20 15 L15 20 M20 15 L25 20" stroke="#2c5aa0" stroke-width="2" fill="none" />
    </g>

    <!-- Main Text -->
    <text x="75" y="32" font-family="Arial, sans-serif" font-size="20" font-weight="bold"
        fill="#2c5aa0">
        Dr. S. Sahboub
    </text>
    <text x="75" y="50" font-family="Arial, sans-serif" font-size="13" fill="#4a7bc8"
        font-weight="500">
        Pulmonology Specialist
    </text>
    <text x="75" y="65" font-family="Arial, sans-serif" font-size="11" fill="#6c757d">
        Patient Management System
    </text>
</svg>